# xmcd
#
# Track frame offsets:
#	150
#	16155
#	35251
#	50048
#	69238
#	86398
#	101847
#	119852
#	137388
#	154687
#	171021
#	185606
#	203604
#	221667
#	235983
#	263650
#
# Disc length: 3521 seconds
#
# Revision: 1
# Processed by: cddbd v1.5.1PL2 Copyright (c) Steve Scherf et al.
# Submitted via: audiograbber 1.83.01
#
DISCID=d80dbf10
DTITLE=Various Artist - Guy Country Karaoke - Volume 2
DYEAR=1900
DGENRE=
TTITLE0=Kenny Chesney - No Shoes, No Shirt, No Problems
TTITLE1=Tim McGraw - Red Ragtop
TTITLE2=Mark Chestnut - She Was
TTITLE3=Tim McGraw - Sing Me Home
TTITLE4=Keity Urban - Somebody Like You
TTITLE5=Kenny Chesney - The Good Stuff
TTITLE6=Joe Nichols - The Impossible
TTITLE7=Brooks and Dunn - The Long Goodbye
TTITLE8=Gary Allan - The One
TTITLE9=Rascal Flatts - These Days
TTITLE10=Andy Griggs - Tonight I Wanna Be Your Man
TTITLE11=Tim McGraw - Unbroken
TTITLE12=Alan Jackson - Work In Progress
TTITLE13=Brad Paisley - Wrapped Around
TTITLE14=Aaron Lines - You Can't Hide Beautiful
TTITLE15=Data Track - Data Track
EXTD=Disk 2
EXTT0=
EXTT1=
EXTT2=
EXTT3=
EXTT4=
EXTT5=
EXTT6=
EXTT7=
EXTT8=
EXTT9=
EXTT10=
EXTT11=
EXTT12=
EXTT13=
EXTT14=
EXTT15=
PLAYORDER=
